<?xml version="1.0" encoding="UTF-8"?>
<svg xmlns="http://www.w3.org/2000/svg" xmlns:xlink="http://www.w3.org/1999/xlink" viewBox="0 0 48 48" version="1.1" width="256px" height="256px">
<g id="surface1">
<path style=" fill:#FFAB40;" d="M 33.5 16 C 30.988281 16 28.703125 16.992188 27 18.601563 C 25.296875 16.992188 23.011719 16 20.5 16 C 15.273438 16 11 20.273438 11 25.5 L 11 37 L 17 37 L 17 24.5 C 17 22.574219 18.574219 21 20.5 21 C 22.425781 21 24 22.574219 24 24.5 L 24 37 L 30 37 L 30 24.5 C 30 22.574219 31.574219 21 33.5 21 C 35.425781 21 37 22.574219 37 24.5 L 37 37 L 43 37 L 43 25.5 C 43 20.273438 38.726563 16 33.5 16 Z "/>
<path style="fill:none;stroke-width:1;stroke-linecap:butt;stroke-linejoin:miter;stroke:#000000;stroke-opacity:1;stroke-miterlimit:10;" d="M 6 16.210938 L 6 32 "/>
<path style=" fill:#424242;" d="M 22 13 C 23.085938 13.359375 24.621094 15 25 16 C 23.246094 17.738281 22.425781 18.867188 22 22 C 21.859375 23.050781 21.097656 23.6875 20 23 C 16.945313 21.085938 14 21 12 21 C 11 20 11.464844 17.347656 12 16 L 18 17 Z "/>
<path style=" fill:#616161;" d="M 18 17 L 4 17 L 15 10 L 29 10 Z "/>
<path style=" fill:#424242;" d="M 7.5 30 C 7.5 27.789063 6.828125 26 6 26 C 5.171875 26 4.5 27.789063 4.5 30 C 4.5 32.210938 5.171875 34 6 34 C 6.828125 34 7.5 32.210938 7.5 30 Z "/>
</g>
</svg>
